<svg xmlns="http://www.w3.org/2000/svg" xmlns:xlink="http://www.w3.org/1999/xlink" width="500" zoomAndPan="magnify" viewBox="0 0 375 374.999991" height="500" preserveAspectRatio="xMidYMid meet" version="1.0"><defs><clipPath id="6ae218b561"><path d="M 64.976562 36.222656 L 310.023438 36.222656 L 310.023438 333.914062 L 64.976562 333.914062 Z M 64.976562 36.222656 " clip-rule="nonzero"/></clipPath><clipPath id="0c5b8ee6f0"><path d="M 187.5 36.222656 C 119.832031 36.222656 64.976562 102.660156 64.976562 184.613281 C 64.976562 266.566406 119.832031 333.003906 187.5 333.003906 C 255.167969 333.003906 310.023438 266.566406 310.023438 184.613281 C 310.023438 102.660156 255.167969 36.222656 187.5 36.222656 Z M 187.5 36.222656 " clip-rule="nonzero"/></clipPath><clipPath id="738a8007e3"><path d="M 0.976562 0.222656 L 246.023438 0.222656 L 246.023438 297 L 0.976562 297 Z M 0.976562 0.222656 " clip-rule="nonzero"/></clipPath><clipPath id="913b13778a"><path d="M 123.5 0.222656 C 55.832031 0.222656 0.976562 66.660156 0.976562 148.613281 C 0.976562 230.566406 55.832031 297.003906 123.5 297.003906 C 191.167969 297.003906 246.023438 230.566406 246.023438 148.613281 C 246.023438 66.660156 191.167969 0.222656 123.5 0.222656 Z M 123.5 0.222656 " clip-rule="nonzero"/></clipPath><clipPath id="3bdb289d42"><rect x="0" width="247" y="0" height="298"/></clipPath><clipPath id="129b3657e7"><path d="M 44 17 L 331 17 L 331 358 L 44 358 Z M 44 17 " clip-rule="nonzero"/></clipPath><clipPath id="2fac02fcc2"><path d="M 44.714844 17.683594 L 44.714844 357.765625 L 330.808594 357.765625 L 330.808594 17.683594 Z M 106.28125 51.363281 C 106.710938 51.363281 106.84375 51.820312 106.308594 52.089844 C 106.21875 52.136719 106.128906 52.179688 106.039062 52.21875 C 105.976562 52.246094 105.914062 52.273438 105.859375 52.316406 C 105.8125 52.363281 105.761719 52.410156 105.71875 52.460938 C 105.640625 52.554688 105.550781 52.640625 105.464844 52.71875 C 105.371094 52.789062 105.28125 52.859375 105.199219 52.9375 C 105.074219 53.050781 104.945312 53.152344 104.824219 53.265625 C 104.757812 53.328125 104.789062 53.296875 104.726562 53.363281 C 104.207031 53.886719 103.675781 53.359375 104.195312 52.835938 C 104.277344 52.757812 104.234375 52.796875 104.320312 52.714844 C 104.441406 52.601562 104.570312 52.496094 104.695312 52.386719 C 104.78125 52.308594 104.867188 52.234375 104.960938 52.167969 C 105.03125 52.105469 105.101562 52.039062 105.164062 51.964844 C 105.246094 51.875 105.332031 51.785156 105.429688 51.710938 C 105.527344 51.640625 105.625 51.585938 105.734375 51.539062 C 105.804688 51.507812 105.871094 51.472656 105.9375 51.441406 L 105.9375 51.445312 C 106.0625 51.390625 106.179688 51.363281 106.28125 51.363281 Z M 106.28125 51.363281 " clip-rule="nonzero"/></clipPath><clipPath id="aa070cc798"><path d="M 258.839844 36.222656 L 282.089844 36.222656 L 282.089844 66.972656 L 258.839844 66.972656 Z M 258.839844 36.222656 " clip-rule="nonzero"/></clipPath></defs><g clip-path="url(#6ae218b561)"><g clip-path="url(#0c5b8ee6f0)"><g transform="matrix(1, 0, 0, 1, 64, 36)"><g clip-path="url(#3bdb289d42)"><g clip-path="url(#738a8007e3)"><g clip-path="url(#913b13778a)"><path fill="#fdf9f3" d="M 0.976562 0.222656 L 246.023438 0.222656 L 246.023438 296.957031 L 0.976562 296.957031 Z M 0.976562 0.222656 " fill-opacity="1" fill-rule="nonzero"/></g></g></g></g></g></g><g clip-path="url(#129b3657e7)"><g clip-path="url(#2fac02fcc2)"><path fill="#92125d" d="M 188.054688 17.683594 C 190.398438 17.6875 192.738281 17.761719 195.074219 17.898438 C 197.414062 18.042969 199.746094 18.25 202.078125 18.527344 C 204.40625 18.804688 206.726562 19.148438 209.042969 19.5625 C 211.359375 19.976562 213.664062 20.457031 215.960938 21.003906 C 218.25 21.546875 220.539062 22.160156 222.804688 22.84375 C 225.078125 23.519531 227.328125 24.269531 229.570312 25.082031 C 231.808594 25.894531 234.027344 26.765625 236.230469 27.707031 C 238.429688 28.648438 240.617188 29.652344 242.777344 30.726562 C 244.933594 31.792969 247.074219 32.925781 249.191406 34.117188 C 251.304688 35.3125 253.390625 36.566406 255.453125 37.882812 C 257.515625 39.195312 259.550781 40.574219 261.554688 42.003906 C 263.5625 43.441406 265.539062 44.929688 267.476562 46.480469 C 269.421875 48.03125 271.335938 49.636719 273.214844 51.292969 C 275.085938 52.957031 276.929688 54.671875 278.738281 56.4375 C 280.542969 58.210938 282.3125 60.03125 284.046875 61.902344 C 285.773438 63.773438 287.464844 65.695312 289.117188 67.664062 C 290.769531 69.632812 292.378906 71.652344 293.949219 73.71875 C 295.515625 75.78125 297.042969 77.890625 298.523438 80.046875 C 300.007812 82.199219 301.445312 84.394531 302.832031 86.632812 C 304.226562 88.871094 305.566406 91.148438 306.863281 93.464844 C 308.160156 95.78125 309.410156 98.132812 310.609375 100.519531 C 311.804688 102.910156 312.957031 105.335938 314.058594 107.789062 C 315.152344 110.242188 316.207031 112.730469 317.199219 115.25 C 318.195312 117.765625 319.140625 120.3125 320.035156 122.886719 C 320.921875 125.457031 321.761719 128.054688 322.546875 130.679688 C 323.328125 133.296875 324.058594 135.9375 324.730469 138.605469 C 325.410156 141.269531 326.027344 143.949219 326.589844 146.648438 C 327.15625 149.347656 327.667969 152.066406 328.117188 154.796875 C 328.570312 157.523438 328.964844 160.269531 329.304688 163.019531 C 329.640625 165.777344 329.925781 168.539062 330.144531 171.304688 C 330.371094 174.078125 330.539062 176.847656 330.648438 179.628906 C 330.761719 182.410156 330.8125 185.191406 330.808594 187.972656 C 330.804688 190.753906 330.742188 193.535156 330.621094 196.316406 C 330.5 199.097656 330.324219 201.871094 330.085938 204.644531 C 329.855469 207.410156 329.5625 210.171875 329.214844 212.925781 C 328.867188 215.675781 328.464844 218.414062 328.003906 221.144531 C 327.535156 223.871094 327.023438 226.585938 326.445312 229.285156 C 325.875 231.980469 325.246094 234.660156 324.5625 237.328125 C 323.875 239.988281 323.136719 242.625 322.34375 245.246094 C 321.550781 247.867188 320.707031 250.460938 319.804688 253.027344 C 318.90625 255.597656 317.949219 258.140625 316.945312 260.652344 C 315.941406 263.164062 314.882812 265.648438 313.773438 268.101562 C 312.667969 270.550781 311.511719 272.972656 310.300781 275.355469 C 309.097656 277.742188 307.835938 280.09375 306.535156 282.402344 C 305.230469 284.714844 303.878906 286.984375 302.480469 289.21875 C 301.078125 291.453125 299.636719 293.644531 298.148438 295.789062 C 296.660156 297.9375 295.128906 300.042969 293.550781 302.101562 C 291.976562 304.164062 290.355469 306.175781 288.699219 308.140625 C 287.042969 310.105469 285.34375 312.015625 283.605469 313.886719 C 281.863281 315.75 280.09375 317.566406 278.277344 319.328125 C 276.464844 321.089844 274.617188 322.796875 272.734375 324.453125 C 270.851562 326.105469 268.933594 327.707031 266.988281 329.246094 C 265.039062 330.789062 263.058594 332.273438 261.046875 333.699219 C 259.039062 335.132812 256.996094 336.496094 254.929688 337.808594 C 252.867188 339.113281 250.769531 340.363281 248.652344 341.550781 C 246.535156 342.730469 244.390625 343.855469 242.226562 344.917969 C 240.0625 345.976562 237.878906 346.976562 235.671875 347.910156 C 233.464844 348.84375 231.238281 349.710938 229 350.515625 C 226.757812 351.320312 224.5 352.058594 222.226562 352.730469 C 219.957031 353.402344 217.675781 354.007812 215.378906 354.546875 C 213.078125 355.085938 210.773438 355.554688 208.457031 355.960938 C 206.140625 356.367188 203.816406 356.703125 201.488281 356.972656 C 199.15625 357.242188 196.824219 357.4375 194.484375 357.574219 C 192.144531 357.703125 189.804688 357.769531 187.464844 357.765625 C 185.121094 357.761719 182.78125 357.6875 180.445312 357.550781 C 178.109375 357.40625 175.773438 357.199219 173.445312 356.921875 C 171.113281 356.648438 168.792969 356.300781 166.476562 355.886719 C 164.164062 355.476562 161.859375 354.996094 159.5625 354.453125 C 157.265625 353.902344 154.984375 353.289062 152.714844 352.605469 C 150.445312 351.929688 148.191406 351.183594 145.953125 350.375 C 143.714844 349.5625 141.492188 348.683594 139.289062 347.742188 C 137.085938 346.800781 134.90625 345.796875 132.742188 344.722656 C 130.582031 343.65625 128.445312 342.527344 126.332031 341.332031 C 124.214844 340.140625 122.128906 338.882812 120.066406 337.570312 C 118.003906 336.253906 115.96875 334.882812 113.964844 333.445312 C 111.957031 332.007812 109.984375 330.519531 108.042969 328.96875 C 106.097656 327.421875 104.1875 325.816406 102.308594 324.15625 C 100.429688 322.492188 98.589844 320.777344 96.785156 319.011719 C 94.976562 317.242188 93.210938 315.421875 91.476562 313.550781 C 89.746094 311.675781 88.054688 309.753906 86.402344 307.785156 C 84.75 305.816406 83.136719 303.796875 81.570312 301.730469 C 80 299.667969 78.476562 297.558594 76.996094 295.40625 C 75.511719 293.25 74.078125 291.054688 72.6875 288.816406 C 71.296875 286.582031 69.949219 284.304688 68.660156 281.984375 C 67.363281 279.667969 66.113281 277.320312 64.910156 274.929688 C 63.710938 272.542969 62.5625 270.121094 61.464844 267.660156 C 60.363281 265.207031 59.316406 262.71875 58.320312 260.199219 C 57.324219 257.683594 56.382812 255.136719 55.488281 252.566406 C 54.597656 249.992188 53.757812 247.394531 52.976562 244.777344 C 52.191406 242.152344 51.460938 239.511719 50.785156 236.847656 C 50.113281 234.183594 49.492188 231.5 48.929688 228.800781 C 48.363281 226.101562 47.855469 223.382812 47.402344 220.652344 C 46.953125 217.925781 46.558594 215.183594 46.214844 212.429688 C 45.878906 209.675781 45.597656 206.914062 45.371094 204.144531 C 45.148438 201.371094 44.980469 198.601562 44.871094 195.820312 C 44.761719 193.039062 44.707031 190.257812 44.714844 187.476562 C 44.71875 184.695312 44.78125 181.914062 44.902344 179.132812 C 45.019531 176.355469 45.199219 173.578125 45.433594 170.8125 C 45.664062 168.039062 45.957031 165.28125 46.308594 162.53125 C 46.652344 159.777344 47.058594 157.035156 47.519531 154.304688 C 47.980469 151.578125 48.5 148.863281 49.074219 146.164062 C 49.644531 143.46875 50.277344 140.789062 50.957031 138.128906 C 51.644531 135.46875 52.382812 132.824219 53.175781 130.207031 C 53.96875 127.585938 54.816406 124.992188 55.71875 122.425781 C 56.617188 119.855469 57.566406 117.3125 58.574219 114.796875 C 59.582031 112.285156 60.636719 109.800781 61.746094 107.347656 C 62.851562 104.898438 64.007812 102.476562 65.21875 100.09375 C 66.425781 97.707031 67.683594 95.363281 68.984375 93.046875 C 70.292969 90.734375 71.640625 88.464844 73.039062 86.230469 C 74.4375 83.996094 75.882812 81.804688 77.371094 79.660156 C 78.863281 77.511719 80.394531 75.40625 81.96875 73.347656 C 83.546875 71.292969 85.164062 69.277344 86.820312 67.3125 C 88.476562 65.347656 90.179688 63.433594 91.917969 61.5625 C 93.652344 59.699219 95.429688 57.882812 97.238281 56.121094 C 99.054688 54.363281 100.90625 52.652344 102.789062 51 C 104.671875 49.34375 106.585938 47.746094 108.53125 46.203125 C 110.484375 44.660156 112.460938 43.175781 114.476562 41.75 C 116.484375 40.324219 118.523438 38.953125 120.589844 37.648438 C 122.65625 36.335938 124.75 35.09375 126.867188 33.90625 C 128.988281 32.71875 131.128906 31.59375 133.289062 30.535156 C 135.457031 29.472656 137.644531 28.472656 139.847656 27.539062 C 142.050781 26.609375 144.277344 25.738281 146.519531 24.933594 C 148.761719 24.128906 151.019531 23.390625 153.292969 22.722656 C 155.566406 22.050781 157.847656 21.445312 160.140625 20.902344 C 162.445312 20.363281 164.75 19.894531 167.0625 19.488281 C 169.378906 19.085938 171.703125 18.75 174.035156 18.480469 C 176.363281 18.210938 178.699219 18.011719 181.039062 17.875 C 183.378906 17.746094 185.714844 17.679688 188.054688 17.683594 Z M 249.425781 231.9375 C 263.226562 226.0625 270.652344 214.605469 278.199219 205.992188 C 278.324219 205.785156 278.316406 205.59375 278.167969 205.40625 C 278.015625 205.21875 277.828125 205.167969 277.605469 205.25 L 272.945312 206.828125 C 272.785156 206.882812 272.621094 206.902344 272.449219 206.886719 C 272.28125 206.867188 272.125 206.820312 271.972656 206.738281 C 271.824219 206.652344 271.699219 206.546875 271.59375 206.40625 C 271.492188 206.269531 271.421875 206.117188 271.382812 205.949219 C 271.039062 204.445312 270.082031 203.105469 268.515625 201.933594 C 268.28125 201.75 268.105469 201.527344 267.996094 201.25 C 267.886719 200.976562 267.859375 200.695312 267.90625 200.40625 C 269.125 192.925781 269.636719 185.101562 269.433594 176.941406 C 269.433594 176.824219 269.398438 176.726562 269.324219 176.636719 C 269.25 176.550781 269.15625 176.5 269.039062 176.484375 C 268.929688 176.464844 268.824219 176.496094 268.726562 176.554688 C 268.632812 176.625 268.570312 176.710938 268.542969 176.820312 C 267.886719 178.882812 267.558594 180.453125 267.558594 181.53125 C 267.558594 186.589844 267.34375 191.539062 266.910156 196.375 C 266.890625 196.566406 266.894531 196.765625 266.925781 196.957031 L 267.441406 200.671875 C 267.472656 200.894531 267.425781 201.101562 267.304688 201.289062 C 267.1875 201.480469 267.019531 201.613281 266.804688 201.679688 C 264.796875 202.308594 262.367188 203.730469 259.507812 205.949219 C 259.109375 206.261719 258.660156 206.457031 258.15625 206.550781 C 254.164062 207.25 248.753906 205.753906 244.90625 204.773438 C 244.253906 204.605469 243.675781 204.296875 243.183594 203.835938 C 242.6875 203.378906 242.332031 202.832031 242.121094 202.199219 L 231.917969 172.167969 C 231.789062 171.800781 231.878906 171.503906 232.191406 171.273438 C 232.5 171.039062 232.816406 171.03125 233.136719 171.25 C 236.144531 173.347656 239.570312 173.871094 243.40625 172.828125 C 243.839844 172.714844 244.277344 172.699219 244.71875 172.789062 C 245.085938 172.867188 245.632812 173.125 246.363281 173.558594 C 249.214844 175.253906 252.980469 174.9375 255.925781 173.636719 C 256.441406 173.421875 256.945312 173.425781 257.4375 173.664062 C 261.171875 175.515625 264.816406 175.359375 268.371094 173.199219 C 268.789062 172.953125 269.207031 172.953125 269.628906 173.199219 C 272.964844 175.191406 276.1875 175.089844 279.300781 172.910156 C 279.671875 172.652344 280.078125 172.53125 280.519531 172.550781 C 280.929688 172.5625 281.5625 172.714844 282.417969 173.015625 C 285.640625 174.15625 288.96875 173.476562 291.757812 171.464844 C 292.019531 171.269531 292.292969 171.257812 292.566406 171.441406 C 292.847656 171.625 292.953125 171.878906 292.882812 172.203125 C 292.390625 174.59375 291.507812 176.988281 290.234375 179.394531 C 289.859375 180.101562 289.570312 180.839844 289.367188 181.609375 C 286.085938 193.546875 283.289062 202.75 280.972656 209.214844 C 280.371094 210.902344 278.71875 213.949219 276.011719 218.351562 C 275.917969 218.492188 275.933594 218.625 276.042969 218.746094 C 276.160156 218.871094 276.289062 218.890625 276.4375 218.804688 C 278.238281 217.84375 279.597656 216.566406 280.507812 214.984375 C 282.628906 211.316406 285.066406 205.652344 287.800781 197.988281 C 288.503906 196.03125 289.238281 194.347656 290.015625 192.953125 C 291.613281 190.113281 293.058594 186.347656 296.183594 185.042969 C 296.402344 184.957031 296.617188 184.910156 296.847656 184.90625 C 297.078125 184.902344 297.292969 184.9375 297.5 185.019531 C 297.710938 185.101562 297.890625 185.21875 298.042969 185.371094 C 298.199219 185.523438 298.3125 185.707031 298.390625 185.910156 C 298.628906 186.527344 298.6875 187.128906 298.5625 187.710938 C 296.742188 196.59375 294.980469 203.9375 293.285156 209.746094 C 291.789062 214.894531 289.902344 219.082031 287.621094 222.320312 C 281.734375 230.679688 275.425781 237.808594 268.675781 243.714844 C 266.601562 245.535156 262.292969 248.421875 255.757812 252.375 C 250.492188 255.550781 246.070312 258.265625 242.476562 260.507812 C 237.878906 263.382812 235.121094 267.152344 234.199219 271.8125 C 233.167969 277.074219 234.121094 285.351562 235.089844 291.125 C 237.304688 304.140625 239.585938 319.019531 241.949219 335.761719 C 241.964844 335.882812 242.003906 335.992188 242.078125 336.09375 C 242.148438 336.191406 242.246094 336.269531 242.355469 336.324219 C 242.464844 336.378906 242.585938 336.40625 242.710938 336.398438 C 242.835938 336.394531 242.953125 336.367188 243.0625 336.304688 C 299.292969 304.855469 326.429688 245.558594 324.613281 182.625 C 324.609375 164.902344 319.957031 140.316406 314.71875 123.84375 C 297.367188 69.222656 252.710938 22.148438 192.886719 19.617188 C 161.792969 18.292969 136.898438 27.320312 107.953125 49.390625 C 106.726562 50.1875 79.574219 72.859375 100.199219 61.460938 C 100.332031 61.390625 106.113281 58.675781 106.285156 58.679688 C 121.171875 52.773438 138.300781 53.90625 153.417969 57.957031 C 162.101562 60.546875 169.664062 64.882812 176.101562 70.96875 C 179.300781 73.996094 183.039062 74.710938 186.261719 77.003906 C 201.875 88.117188 206.109375 107.742188 201.117188 125.511719 C 198.941406 133.261719 198.320312 138.527344 202.789062 144.496094 C 206.238281 149.113281 209.8125 153.339844 213.507812 157.1875 C 219.34375 163.25 211.757812 167.746094 206.546875 168.902344 C 206.320312 168.953125 206.109375 169.023438 205.902344 169.125 C 205.699219 169.222656 205.507812 169.347656 205.335938 169.488281 C 205.15625 169.632812 205 169.796875 204.863281 169.976562 C 204.726562 170.15625 204.609375 170.351562 204.519531 170.5625 C 204.425781 170.769531 204.359375 170.984375 204.320312 171.210938 C 204.277344 171.429688 204.265625 171.65625 204.277344 171.882812 C 204.289062 172.113281 204.328125 172.332031 204.394531 172.550781 C 204.457031 172.769531 204.546875 172.976562 204.664062 173.175781 L 207.472656 178.039062 C 207.832031 178.667969 207.9375 179.335938 207.773438 180.042969 C 207.265625 182.324219 205.757812 184.226562 203.253906 185.75 C 203.128906 185.828125 203.03125 185.929688 202.957031 186.058594 C 202.886719 186.1875 202.847656 186.320312 202.84375 186.472656 C 202.84375 186.613281 202.871094 186.753906 202.941406 186.882812 C 203.011719 187.011719 203.105469 187.113281 203.226562 187.195312 C 208.496094 190.59375 203.332031 193.484375 200.667969 195.390625 C 199.988281 195.882812 199.460938 196.496094 199.074219 197.242188 C 198.695312 197.984375 198.503906 198.773438 198.503906 199.609375 C 198.503906 201.511719 198.515625 203.273438 198.535156 204.902344 C 198.675781 220.277344 179.203125 217.304688 170.1875 214.375 C 161.496094 211.558594 154.34375 210.105469 149.386719 218.84375 C 143.378906 229.40625 137.183594 243.082031 136.917969 254.648438 C 136.679688 265.585938 140.414062 275.839844 148.125 285.417969 C 158.671875 298.46875 167.890625 308.449219 176.101562 322.296875 C 181.132812 330.773438 184.085938 339.941406 184.949219 349.78125 C 184.96875 350.027344 185.074219 350.230469 185.265625 350.390625 C 185.457031 350.550781 194.25 350.410156 194.5 350.394531 C 197.230469 350.230469 199.882812 350.105469 204.15625 349.171875 C 204.414062 349.152344 204.632812 349.046875 204.816406 348.863281 C 205 348.683594 205.09375 348.460938 205.109375 348.203125 C 206.914062 318.167969 208.4375 290.050781 209.671875 263.835938 C 210.007812 256.703125 212.644531 249.570312 217.578125 242.441406 C 219.304688 239.9375 222.207031 237.003906 226.285156 233.632812 C 238.101562 223.847656 250.304688 215.671875 266.25 204.625 C 266.667969 204.335938 267.097656 204.304688 267.542969 204.546875 C 267.988281 204.785156 268.203125 205.15625 268.183594 205.660156 C 268.113281 208.472656 267.171875 211.085938 265.359375 213.5 C 260.894531 219.441406 255.484375 225.398438 249.140625 231.363281 C 249.007812 231.480469 248.984375 231.609375 249.0625 231.761719 C 249.144531 231.914062 249.261719 231.96875 249.425781 231.9375 Z M 176.539062 76.511719 C 176.671875 84.226562 175.214844 91.882812 172.175781 99.488281 C 166.308594 114.113281 156.871094 125.480469 143.855469 133.578125 C 141.445312 135.074219 137.710938 137.316406 132.632812 140.304688 C 132.429688 140.425781 132.367188 140.597656 132.445312 140.824219 C 132.523438 141.042969 132.675781 141.140625 132.910156 141.109375 C 135.855469 140.679688 138.742188 139.789062 141.570312 138.445312 C 158.957031 130.152344 170.507812 116.597656 176.21875 97.792969 C 177.878906 92.3125 179.308594 81.949219 176.9375 76.4375 C 176.886719 76.324219 176.804688 76.28125 176.691406 76.304688 C 176.574219 76.332031 176.527344 76.398438 176.539062 76.511719 Z M 124.660156 145.160156 C 122.472656 139.890625 116.699219 138.496094 111.488281 139.828125 C 101.816406 142.277344 100.214844 152.148438 103.078125 160.570312 C 106.132812 169.566406 113.503906 177.640625 123.648438 178.296875 C 124.046875 178.320312 124.421875 178.234375 124.777344 178.03125 L 125.480469 177.617188 C 125.6875 177.507812 125.773438 177.339844 125.734375 177.109375 C 125.695312 176.878906 125.566406 176.742188 125.335938 176.699219 C 117.640625 175.226562 111.9375 170.929688 108.226562 163.824219 C 106.207031 159.976562 105.027344 157.496094 105.121094 153.316406 C 105.359375 143.089844 116.78125 139.746094 124.011719 145.652344 C 124.179688 145.773438 124.351562 145.773438 124.519531 145.644531 C 124.6875 145.519531 124.734375 145.359375 124.660156 145.160156 Z M 66.839844 162.480469 C 69.464844 165.984375 72.828125 169.234375 76.933594 172.234375 C 77.613281 172.726562 78.195312 172.902344 78.667969 172.746094 C 78.894531 172.683594 79.035156 172.535156 79.085938 172.304688 C 79.136719 172.074219 79.074219 171.882812 78.894531 171.730469 C 75.316406 168.679688 71.96875 165.085938 68.855469 160.960938 C 65.753906 156.828125 63.230469 152.621094 61.296875 148.339844 C 61.199219 148.125 61.03125 148.007812 60.796875 147.988281 C 60.554688 147.96875 60.371094 148.0625 60.246094 148.261719 C 59.972656 148.675781 59.980469 149.28125 60.273438 150.078125 C 62.015625 154.84375 64.207031 158.980469 66.839844 162.480469 Z M 244.191406 177.28125 C 244.117188 177.296875 244.070312 177.382812 244.03125 177.546875 C 244 177.703125 243.980469 177.933594 243.980469 178.234375 C 243.980469 178.53125 243.992188 178.890625 244.027344 179.320312 C 244.0625 179.742188 244.113281 180.222656 244.179688 180.757812 C 244.25 181.292969 244.335938 181.875 244.429688 182.5 C 244.53125 183.128906 244.640625 183.785156 244.765625 184.476562 C 244.890625 185.167969 245.03125 185.878906 245.179688 186.609375 C 245.324219 187.339844 245.484375 188.074219 245.644531 188.820312 C 245.808594 189.566406 245.980469 190.292969 246.15625 191.019531 C 246.332031 191.746094 246.503906 192.445312 246.683594 193.128906 C 246.867188 193.8125 247.039062 194.453125 247.214844 195.058594 C 247.390625 195.667969 247.5625 196.230469 247.726562 196.746094 C 247.890625 197.261719 248.046875 197.714844 248.195312 198.113281 C 248.34375 198.519531 248.484375 198.851562 248.609375 199.125 C 248.734375 199.394531 248.851562 199.589844 248.949219 199.71875 C 249.046875 199.847656 249.132812 199.90625 249.199219 199.890625 C 249.273438 199.878906 249.320312 199.792969 249.359375 199.632812 C 249.394531 199.46875 249.410156 199.242188 249.410156 198.945312 C 249.410156 198.644531 249.398438 198.28125 249.363281 197.859375 C 249.332031 197.433594 249.277344 196.953125 249.210938 196.417969 C 249.144531 195.882812 249.0625 195.300781 248.960938 194.675781 C 248.859375 194.050781 248.75 193.394531 248.625 192.703125 C 248.5 192.007812 248.359375 191.296875 248.210938 190.5625 C 248.066406 189.832031 247.910156 189.097656 247.746094 188.355469 C 247.582031 187.613281 247.410156 186.878906 247.234375 186.152344 C 247.0625 185.429688 246.886719 184.726562 246.707031 184.046875 C 246.523438 183.367188 246.351562 182.71875 246.175781 182.113281 C 246 181.503906 245.828125 180.941406 245.664062 180.429688 C 245.5 179.914062 245.34375 179.457031 245.195312 179.058594 C 245.046875 178.660156 244.90625 178.324219 244.78125 178.054688 C 244.65625 177.78125 244.542969 177.585938 244.441406 177.453125 C 244.34375 177.324219 244.257812 177.265625 244.191406 177.28125 Z M 256.429688 177.378906 C 256.359375 177.382812 256.296875 177.464844 256.238281 177.617188 C 256.179688 177.765625 256.128906 177.992188 256.085938 178.285156 C 256.046875 178.578125 256.011719 178.9375 255.988281 179.363281 C 255.960938 179.789062 255.945312 180.269531 255.941406 180.808594 C 255.933594 181.339844 255.933594 181.925781 255.949219 182.554688 C 255.960938 183.191406 255.980469 183.851562 256.011719 184.550781 C 256.042969 185.25 256.082031 185.972656 256.128906 186.710938 C 256.175781 187.449219 256.230469 188.199219 256.292969 188.953125 C 256.355469 189.707031 256.421875 190.457031 256.496094 191.191406 C 256.570312 191.933594 256.652344 192.648438 256.734375 193.34375 C 256.820312 194.042969 256.90625 194.699219 256.996094 195.324219 C 257.089844 195.949219 257.179688 196.523438 257.277344 197.054688 C 257.371094 197.582031 257.464844 198.050781 257.558594 198.464844 C 257.652344 198.882812 257.742188 199.230469 257.832031 199.511719 C 257.917969 199.796875 258.007812 200.007812 258.089844 200.152344 C 258.167969 200.289062 258.246094 200.359375 258.320312 200.351562 C 258.390625 200.347656 258.453125 200.273438 258.511719 200.117188 C 258.570312 199.964844 258.621094 199.738281 258.664062 199.445312 C 258.703125 199.152344 258.738281 198.792969 258.761719 198.371094 C 258.789062 197.945312 258.804688 197.464844 258.808594 196.929688 C 258.8125 196.390625 258.8125 195.804688 258.796875 195.175781 C 258.789062 194.546875 258.765625 193.878906 258.734375 193.179688 C 258.707031 192.480469 258.667969 191.761719 258.621094 191.019531 C 258.570312 190.28125 258.519531 189.53125 258.457031 188.777344 C 258.394531 188.023438 258.328125 187.277344 258.25 186.539062 C 258.179688 185.796875 258.097656 185.082031 258.015625 184.386719 C 257.929688 183.695312 257.84375 183.03125 257.75 182.410156 C 257.660156 181.789062 257.566406 181.210938 257.472656 180.679688 C 257.375 180.148438 257.285156 179.679688 257.1875 179.265625 C 257.097656 178.851562 257.007812 178.503906 256.914062 178.21875 C 256.828125 177.933594 256.742188 177.722656 256.660156 177.578125 C 256.578125 177.441406 256.503906 177.375 256.429688 177.378906 Z M 281.042969 178.453125 C 281.082031 178.207031 281.027344 177.988281 280.890625 177.792969 C 280.746094 177.589844 280.554688 177.46875 280.308594 177.429688 L 280.253906 177.421875 C 280.015625 177.382812 279.792969 177.429688 279.59375 177.574219 C 279.394531 177.71875 279.277344 177.910156 279.238281 178.152344 L 275.808594 198.855469 C 275.769531 199.097656 275.824219 199.320312 275.960938 199.515625 C 276.105469 199.71875 276.296875 199.839844 276.539062 199.875 L 276.589844 199.886719 C 276.835938 199.925781 277.054688 199.871094 277.253906 199.734375 C 277.457031 199.589844 277.574219 199.398438 277.613281 199.15625 Z M 88.527344 188.929688 C 83.195312 192.039062 77.109375 194.554688 70.59375 193.507812 C 63.246094 192.316406 58.296875 188.625 54.160156 183.125 C 53.96875 182.871094 53.722656 182.863281 53.425781 182.960938 C 53.121094 183.054688 53.167969 183.25 53.160156 183.566406 C 53.046875 194.589844 53.015625 206.457031 55.046875 218.59375 C 55.800781 223.058594 56.414062 226.121094 56.890625 227.773438 C 57.613281 231.597656 58.28125 234.660156 59.011719 236.898438 C 59.53125 240.53125 61.257812 244.246094 62.476562 248.292969 C 62.582031 248.648438 62.785156 248.886719 63.144531 248.988281 C 63.503906 249.089844 63.816406 249.007812 64.082031 248.746094 C 79.933594 232.5625 89.152344 212.132812 89.402344 189.433594 C 89.402344 189.332031 89.375 189.234375 89.324219 189.148438 C 89.269531 189.054688 89.199219 188.984375 89.109375 188.929688 C 89.019531 188.882812 88.921875 188.855469 88.820312 188.855469 C 88.714844 188.855469 88.617188 188.882812 88.527344 188.929688 Z M 88.527344 188.929688 " fill-opacity="1" fill-rule="nonzero"/></g></g><path fill="#92125d" d="M 275.242188 146.972656 C 275.710938 147.027344 275.789062 146.320312 275.320312 146.269531 C 270.972656 145.300781 266.804688 143.984375 262.8125 142.300781 C 256.75 139.757812 253.867188 131.917969 260.753906 127.980469 C 262.042969 127.242188 263.363281 126.820312 264.707031 126.722656 C 265.242188 126.664062 265.558594 127.300781 265.195312 127.699219 C 261.417969 132 266.375 135.546875 270.300781 136.875 C 273.46875 137.929688 276.117188 137.496094 278.894531 139.40625 C 281.496094 141.203125 282.433594 143.8125 281.710938 147.226562 C 281.585938 147.796875 281.882812 148.371094 282.414062 148.597656 C 285.988281 150.125 290.351562 152.675781 292.273438 156.058594 C 295.214844 161.238281 294.519531 166.058594 290.183594 170.515625 C 287.0625 173.710938 282.496094 169.59375 278.707031 171.285156 C 275.296875 172.820312 273.78125 172.589844 270.707031 171.421875 C 270.285156 171.265625 269.820312 171.265625 269.394531 171.421875 C 265.320312 172.953125 262.09375 173.84375 257.941406 171.761719 C 256.738281 171.15625 255.5625 171.171875 254.40625 171.800781 C 251.347656 173.480469 249.519531 172.304688 245.984375 170.828125 C 245.347656 170.554688 244.640625 170.519531 243.992188 170.730469 C 240.675781 171.75 238.238281 171.859375 236.683594 171.058594 C 232.796875 169.042969 231.160156 165.785156 231.773438 161.285156 C 232.449219 156.347656 235.003906 152.867188 239.433594 150.847656 C 240.023438 150.578125 240.695312 150.984375 240.734375 151.628906 C 241.15625 158.464844 246.203125 161.90625 252.578125 163.503906 C 257.886719 164.828125 262.460938 165.597656 266.304688 165.804688 C 266.925781 165.8125 267.070312 164.941406 266.480469 164.75 C 264.675781 164.226562 259.554688 162.453125 251.117188 159.441406 C 248.875 158.636719 246.84375 157.042969 245.011719 154.660156 C 239.609375 147.582031 244.78125 137.089844 253.753906 137.238281 C 254.253906 137.246094 254.691406 137.574219 254.835938 138.050781 C 255.921875 141.6875 258.382812 144.066406 262.214844 145.183594 C 266.378906 146.40625 270.722656 146.996094 275.242188 146.972656 Z M 250.226562 144.589844 C 250.601562 148.90625 252.765625 151.988281 256.707031 153.835938 C 262.960938 156.757812 270.109375 157.910156 279.246094 159.792969 C 282.902344 160.554688 284.960938 161.691406 287.84375 163.910156 C 288.382812 164.328125 289.085938 163.65625 288.699219 163.097656 C 286.246094 159.5625 283.132812 157.425781 278.707031 156.3125 C 275.132812 155.410156 270.019531 154.140625 263.367188 152.5 C 258.042969 151.179688 253.867188 148.46875 250.847656 144.359375 C 250.625 144.085938 250.183594 144.246094 250.226562 144.589844 Z M 250.226562 144.589844 " fill-opacity="1" fill-rule="nonzero"/><g clip-path="url(#aa070cc798)"><path fill="#92125d" d="M 280.5625 47.890625 C 279.921875 47.769531 279.277344 47.679688 278.628906 47.609375 C 276.964844 47.4375 275.640625 46.6875 274.671875 45.324219 C 273.359375 43.46875 272.394531 41.453125 271.886719 39.230469 C 271.796875 38.835938 271.707031 38.441406 271.613281 38.046875 C 271.5 37.570312 271.238281 37.1875 270.863281 36.875 C 270.074219 36.226562 269.019531 36.351562 268.453125 37.207031 C 268.238281 37.539062 268.105469 37.933594 267.992188 38.320312 C 267.621094 39.589844 267.28125 40.871094 266.921875 42.148438 C 266.273438 44.441406 265.105469 46.453125 263.574219 48.253906 C 262.746094 49.230469 261.738281 49.964844 260.492188 50.34375 C 260.152344 50.445312 259.816406 50.609375 259.539062 50.824219 C 259.054688 51.191406 258.863281 51.71875 258.980469 52.324219 C 259.105469 52.945312 259.480469 53.371094 260.097656 53.558594 C 260.289062 53.613281 260.492188 53.636719 260.691406 53.664062 C 261.492188 53.769531 262.300781 53.847656 263.097656 53.976562 C 263.980469 54.113281 264.785156 54.453125 265.472656 55.035156 C 267.117188 56.429688 267.933594 58.269531 268.238281 60.355469 C 268.386719 61.378906 268.425781 62.414062 268.535156 63.445312 C 268.582031 63.890625 268.628906 64.34375 268.761719 64.769531 C 269 65.523438 269.84375 66.097656 270.5625 66.058594 C 271.335938 66.019531 271.898438 65.492188 272.101562 64.601562 C 272.175781 64.273438 272.222656 63.9375 272.285156 63.605469 C 272.765625 61.046875 273.539062 58.59375 274.890625 56.347656 C 275.269531 55.710938 275.679688 55.089844 276.074219 54.460938 C 276.78125 53.320312 277.738281 52.457031 278.960938 51.90625 C 279.574219 51.632812 280.203125 51.398438 280.832031 51.152344 C 281.664062 50.820312 282.117188 50.242188 282.105469 49.507812 C 282.089844 48.691406 281.519531 48.074219 280.566406 47.890625 Z M 280.5625 47.890625 " fill-opacity="1" fill-rule="nonzero"/></g></svg>